<?xml version="1.0" encoding="UTF-8" standalone="no"?>
<!-- Created with Inkscape (http://www.inkscape.org/) -->

<svg
   xmlns:dc="http://purl.org/dc/elements/1.1/"
   xmlns:cc="http://creativecommons.org/ns#"
   xmlns:rdf="http://www.w3.org/1999/02/22-rdf-syntax-ns#"
   xmlns:svg="http://www.w3.org/2000/svg"
   xmlns="http://www.w3.org/2000/svg"
   xmlns:sodipodi="http://sodipodi.sourceforge.net/DTD/sodipodi-0.dtd"
   xmlns:inkscape="http://www.inkscape.org/namespaces/inkscape"
   width="39.158333mm"
   height="39.158333mm"
   viewBox="0 0 39.158333 39.158333"
   version="1.1"
   id="svg1809"
   inkscape:version="0.92.5 (2060ec1f9f, 2020-04-08)"
   sodipodi:docname="gear_white.svg">
  <defs
     id="defs1803" />
  <sodipodi:namedview
     id="base"
     pagecolor="#ffffff"
     bordercolor="#666666"
     borderopacity="1.0"
     inkscape:pageopacity="0.0"
     inkscape:pageshadow="2"
     inkscape:zoom="3.959798"
     inkscape:cx="70.970237"
     inkscape:cy="55.577242"
     inkscape:document-units="mm"
     inkscape:current-layer="layer1"
     showgrid="false"
     inkscape:window-width="1848"
     inkscape:window-height="1016"
     inkscape:window-x="72"
     inkscape:window-y="27"
     inkscape:window-maximized="1" />
  <metadata
     id="metadata1806">
    <rdf:RDF>
      <cc:Work
         rdf:about="">
        <dc:format>image/svg+xml</dc:format>
        <dc:type
           rdf:resource="http://purl.org/dc/dcmitype/StillImage" />
        <dc:title></dc:title>
      </cc:Work>
    </rdf:RDF>
  </metadata>
  <g
     inkscape:label="Layer 1"
     inkscape:groupmode="layer"
     id="layer1"
     transform="translate(-18.218453,-83.745834)">
    <path
       style="fill:#000000;stroke-width:0.99999994"
       d="m 128.08398,62 c -2.73116,0 -5.25359,0.465619 -5.60546,1.035156 -0.352,0.569537 -1.02614,3.766899 -1.49805,7.105469 -0.47191,3.33857 -1.0749,6.287789 -1.33985,6.552734 -0.26495,0.264983 -2.02435,0.828596 -3.91015,1.253907 -3.20821,0.723552 -3.50191,0.572683 -4.55859,-2.34961 -0.62114,-1.717719 -2.39885,-4.644492 -3.95118,-6.503906 -2.72292,-3.261619 -2.95019,-3.337774 -6.4414,-2.185547 -6.426608,2.120958 -6.718651,3.525268 -3.246097,15.611328 0.425424,1.480668 -0.243547,2.630105 -2.505859,4.302735 l -3.087891,2.28125 -4.193359,-3.587891 c -5.98046,-5.119068 -8.26964,-5.453017 -11.976563,-1.746094 -3.71006,3.71006 -3.374268,5.997116 1.765625,12.001953 l 3.609375,4.216797 -2.199219,3.087889 c -1.668961,2.34368 -2.712035,2.94303 -4.322265,2.48242 -12.226961,-3.49784 -13.590698,-3.21932 -15.710938,3.20508 -1.123275,3.40358 -1.031705,3.72927 1.625,5.84766 1.54715,1.23367 4.511948,3.0092 6.587891,3.94531 3.452976,1.55705 3.723337,1.96699 3.191406,4.82227 -0.785083,4.21399 -1.376399,4.69804 -6.445312,5.27929 -2.404082,0.27564 -5.608565,0.97034 -7.121094,1.54297 -2.471433,0.9357 -2.75,1.52585 -2.75,5.82227 0,4.46332 0.208381,4.85401 3.148438,5.8789 1.732079,0.60382 5.08094,1.09766 7.441406,1.09766 4.800945,0 4.892181,0.08 5.794922,5.0918 0.616176,3.42089 0.46327,3.67246 -3.195313,5.32226 -2.112378,0.95256 -5.080818,2.72216 -6.597656,3.93164 l -2.757813,2.19922 1.660157,4.15039 c 0.913436,2.28291 2.284544,4.38911 3.046875,4.68164 1.256315,0.48208 11.625793,-1.74422 13.490234,-2.89648 0.424894,-0.26264 1.722462,1.13104 2.882812,3.09765 l 2.109376,3.57618 -3.548829,4.14648 c -4.981039,5.81923 -5.361835,8.16296 -1.912109,11.76367 1.546507,1.6142 3.515384,2.93365 4.375,2.93164 0.859616,-0.002 3.933032,-1.80161 6.830078,-3.99804 l 5.267578,-3.99414 3.277344,2.14843 3.277344,2.15039 -1.761719,5.09766 c -2.998639,8.67485 -2.571084,9.84506 4.591795,12.56836 2.15781,0.82042 2.93153,0.56533 4.98242,-1.64648 1.33531,-1.44004 3.21267,-4.35918 4.17188,-6.48633 1.66295,-3.68776 1.90984,-3.83749 5.33398,-3.22071 1.97514,0.35577 3.86669,0.8012 4.20118,0.98829 0.33469,0.18712 0.85584,3.07009 1.1582,6.40625 0.30251,3.33618 1.09606,6.7229 1.76367,7.52734 0.68829,0.82934 2.91507,1.46289 5.14258,1.46289 3.53767,0 4.07218,-0.34595 5.37695,-3.46875 0.79695,-1.90734 1.44922,-5.25424 1.44922,-7.43945 0,-4.45217 0.11638,-4.57991 5.00195,-5.45899 3.34493,-0.60185 3.60852,-0.43043 5.85938,3.8125 3.72586,7.02354 5.36602,8.10235 10.14062,6.67188 3.75992,-1.12645 3.99805,-1.42494 3.99805,-5.03125 0,-2.10875 -0.64745,-5.67132 -1.43945,-7.91602 l -1.44141,-4.08008 3.50195,-2.16406 3.5,-2.16406 3.86524,3.10742 c 2.12621,1.70869 5.03307,3.63741 6.45898,4.28711 2.31019,1.0526 2.91778,0.87119 5.57422,-1.67383 C 181.6592,186.9115 183,184.85006 183,183.90234 c 0,-0.94771 -1.82585,-4.03134 -4.05664,-6.85351 l -4.05469,-5.13086 2.09961,-3.39844 2.10156,-3.40039 4.08008,1.44141 c 2.2447,0.79196 5.75724,1.43945 7.80469,1.43945 3.44912,0 3.84472,-0.31219 5.40234,-4.25 l 1.68164,-4.25 -2.70312,-2.17773 c -1.48732,-1.19732 -4.43255,-2.95565 -6.54492,-3.90821 -3.65863,-1.6498 -3.81149,-1.90137 -3.19532,-5.32226 0.35578,-1.97511 0.8012,-3.86669 0.98829,-4.20118 0.18712,-0.33469 3.07006,-0.85584 6.40625,-1.1582 7.56994,-0.6864 8.99023,-1.82411 8.99023,-7.19531 0,-3.54852 -0.40358,-4.4004 -2.54688,-5.37695 -1.40085,-0.63829 -3.76336,-1.16627 -5.25,-1.17383 -5.33996,-0.0269 -7.13544,-1.08178 -8.16015,-4.79297 -0.54372,-1.96974 -0.88808,-3.65009 -0.76563,-3.73438 0.12262,-0.0842 2.61675,-1.43619 5.54297,-3.0039 2.92619,-1.56774 5.73233,-3.62071 6.23633,-4.5625 1.12797,-2.10754 -1.40278,-8.70469 -3.67383,-9.57617 -0.85496,-0.32806 -4.20877,0.14094 -7.45312,1.04297 -3.24434,0.90196 -6.04666,1.64062 -6.22657,1.64062 -0.17988,0 -1.31583,-1.33735 -2.52343,-2.9707 l -2.19531,-2.96875 4.0039,-5.281253 c 2.20176,-2.904151 4.00581,-5.982219 4.00781,-6.841797 0.002,-0.859616 -1.31745,-2.828493 -2.93164,-4.375 -3.60703,-3.455735 -5.94332,-3.069036 -11.81054,1.953125 l -4.19336,3.587891 -3.03125,-2.240235 c -3.54856,-2.623559 -3.49172,-2.228316 -1.375,-9.841797 1.91301,-6.880705 1.33964,-8.208318 -4.34375,-10.083984 -4.17475,-1.377789 -5.67964,-0.258591 -9.53907,7.091797 -2.20002,4.190022 -2.60631,4.484002 -5.4121,3.910156 C 135.6471,76.975674 135,76.199314 135,71.505859 135,69.099132 134.56178,65.975237 134.02539,64.564453 133.15924,62.286192 132.49423,62 128.08398,62 Z M 132,88.050781 l 3.25,0.566407 c 29.1744,5.096161 47.39456,34.591032 38.14258,61.744142 -0.86895,2.5502 -1.87539,4.8143 -2.23633,5.03125 -0.36102,0.21706 -6.73126,-3.10347 -14.15625,-7.37891 l -13.5,-7.77344 -0.63281,-5.05078 c -0.73806,-5.89534 -3.6684,-10.4917 -7.87891,-12.35547 L 132,121.51172 v -16.73047 z m -8,0.207031 v 16.626958 16.62695 l -2.98828,1.32226 c -4.20748,1.86241 -7.14043,6.45831 -7.87891,12.34375 L 112.5,140.2168 99,148.0957 c -7.424995,4.33282 -13.75617,7.88307 -14.068359,7.89063 -1.039522,0.025 -4.149339,-11.29931 -4.650391,-16.93164 C 78.203152,115.69463 95.592575,93.671522 119.75,89.068359 Z m 4.22852,40.777348 c 2.0586,0.034 4.07103,0.63698 5.11718,1.79296 2.27698,2.51611 2.09965,7.72653 -0.3457,10.17188 -1.11115,1.11111 -3.33334,2 -5,2 -1.66665,0 -3.88889,-0.88889 -5,-2 -2.55349,-2.55356 -2.64605,-8.10656 -0.17188,-10.3457 1.23572,-1.11825 3.3418,-1.65317 5.4004,-1.61914 z m 10.66406,17.83789 14.05078,8.16406 14.05078,8.16406 -2.0293,2.84961 c -5.25755,7.38354 -17.23198,14.64751 -27.76367,16.84375 -10.34396,2.15709 -20.29291,0.73295 -30.85351,-4.41601 -6.360771,-3.1013 -18.202096,-14.04174 -16.738285,-15.46485 0.489487,-0.47592 6.881012,-4.29967 14.203125,-8.49805 l 13.3125,-7.63281 4.25391,2.0586 c 5.34571,2.58844 7.89893,2.58749 13.25195,-0.004 z"
       id="path1756"
       inkscape:connector-curvature="0"
       transform="matrix(0.26458333,0,0,0.26458333,3.9309535,67.341668)"
       sodipodi:nodetypes="scscccccscccsccccccccccscscccccccccccccccccccsccccscscccscccccccscccccscccccccsccccccccscccsccccccccscscccccccccccccccccccscccccscccccccsccccccc" />
  </g>
</svg>
