<?xml version="1.0" encoding="UTF-8" standalone="no"?>
<svg
   xmlns:dc="http://purl.org/dc/elements/1.1/"
   xmlns:cc="http://creativecommons.org/ns#"
   xmlns:rdf="http://www.w3.org/1999/02/22-rdf-syntax-ns#"
   xmlns:svg="http://www.w3.org/2000/svg"
   xmlns="http://www.w3.org/2000/svg"
   xmlns:sodipodi="http://sodipodi.sourceforge.net/DTD/sodipodi-0.dtd"
   xmlns:inkscape="http://www.inkscape.org/namespaces/inkscape"
   enable-background="new 0 0 24 24"
   height="18.635191"
   viewBox="0 0 18.003868 18.635191"
   width="18.003868"
   version="1.1"
   id="svg10"
   sodipodi:docname="precision_manufacturing_31dp_5F6368.svg"
   inkscape:version="0.92.5 (2060ec1f9f, 2020-04-08)"
   style="fill:#5f6368">
  <metadata
     id="metadata16">
    <rdf:RDF>
      <cc:Work
         rdf:about="">
        <dc:format>image/svg+xml</dc:format>
        <dc:type
           rdf:resource="http://purl.org/dc/dcmitype/StillImage" />
      </cc:Work>
    </rdf:RDF>
  </metadata>
  <defs
     id="defs14" />
  <sodipodi:namedview
     pagecolor="#ffffff"
     bordercolor="#666666"
     borderopacity="1"
     objecttolerance="10"
     gridtolerance="10"
     guidetolerance="10"
     inkscape:pageopacity="0"
     inkscape:pageshadow="2"
     inkscape:window-width="1848"
     inkscape:window-height="1016"
     id="namedview12"
     showgrid="false"
     inkscape:zoom="19.666667"
     inkscape:cx="12.100074"
     inkscape:cy="5.8877044"
     inkscape:window-x="72"
     inkscape:window-y="27"
     inkscape:window-maximized="1"
     inkscape:current-layer="svg10" />
  <path
     inkscape:connector-curvature="0"
     id="path6"
     d="M 16.93,5.9851906 13.33,7.6651903 11,5.3351906 v -1.4 l 2.33,-2.33 3.6,1.68 c 0.38,0.18 0.82,0.01 1,-0.36 0.18,-0.38 0.01,-0.82 -0.36,-1 L 13.65,0.09519065 c -0.38,-0.18 -0.83,-0.1 -1.13,0.2 L 10.78,2.0351906 c -0.18,-0.24 -0.46,-0.4 -0.78,-0.4 -0.5499997,0 -0.9999997,0.45 -0.9999997,1 v 1 H 5.82 c -0.42,-1.16 -1.52,-2 -2.82,-2 -1.66,0 -3,1.34 -3,3 0,1.1 0.6,2.05 1.48,2.58 L 4.08,15.63519 H 3 c -1.1,0 -2,0.9 -2,2 v 1 h 13 v -1 c 0,-1.1 -0.9,-2 -2,-2 H 10.38 L 5.41,6.4051906 c 0.17,-0.24 0.31,-0.49 0.41,-0.77 h 3.1800003 v 1 c 0,0.55 0.45,0.9999997 0.9999997,0.9999997 0.32,0 0.6,-0.16 0.78,-0.3999997 l 1.74,1.7399997 c 0.3,0.3 0.75,0.38 1.13,0.2 l 3.92,-1.83 c 0.38,-0.1799997 0.54,-0.6199997 0.36,-0.9999997 -0.18,-0.37 -0.62,-0.54 -1,-0.36 z M 3,5.6351906 c -0.55,0 -1,-0.45 -1,-1 0,-0.55 0.45,-1 1,-1 0.55,0 1,0.45 1,1 0,0.55 -0.45,1 -1,1 z M 8.1100003,15.63519 H 6.17 L 3.71,7.6351903 h 0.1 z"
     style="fill:#000000;fill-opacity:1" />
</svg>
