<?xml version="1.0" encoding="UTF-8" standalone="no"?>
<!-- Created with Inkscape (http://www.inkscape.org/) -->

<svg
   xmlns:dc="http://purl.org/dc/elements/1.1/"
   xmlns:cc="http://creativecommons.org/ns#"
   xmlns:rdf="http://www.w3.org/1999/02/22-rdf-syntax-ns#"
   xmlns:svg="http://www.w3.org/2000/svg"
   xmlns="http://www.w3.org/2000/svg"
   xmlns:sodipodi="http://sodipodi.sourceforge.net/DTD/sodipodi-0.dtd"
   xmlns:inkscape="http://www.inkscape.org/namespaces/inkscape"
   width="4.7635093mm"
   height="4.9305458mm"
   viewBox="0 0 4.7635093 4.9305458"
   version="1.1"
   id="svg844"
   inkscape:version="0.92.5 (2060ec1f9f, 2020-04-08)"
   sodipodi:docname="precision_manufacturing.svg">
  <defs
     id="defs838" />
  <sodipodi:namedview
     id="base"
     pagecolor="#ffffff"
     bordercolor="#666666"
     borderopacity="1.0"
     inkscape:pageopacity="0.0"
     inkscape:pageshadow="2"
     inkscape:zoom="22.4"
     inkscape:cx="14.746671"
     inkscape:cy="10.598231"
     inkscape:document-units="mm"
     inkscape:current-layer="layer1"
     showgrid="false"
     inkscape:window-width="1848"
     inkscape:window-height="1016"
     inkscape:window-x="72"
     inkscape:window-y="27"
     inkscape:window-maximized="1" />
  <metadata
     id="metadata841">
    <rdf:RDF>
      <cc:Work
         rdf:about="">
        <dc:format>image/svg+xml</dc:format>
        <dc:type
           rdf:resource="http://purl.org/dc/dcmitype/StillImage" />
        <dc:title></dc:title>
      </cc:Work>
    </rdf:RDF>
  </metadata>
  <g
     inkscape:label="Layer 1"
     inkscape:groupmode="layer"
     id="layer1"
     transform="translate(-323.43376,-245.39786)">
    <path
       inkscape:connector-curvature="0"
       id="path6"
       d="m 327.91311,246.9814 -0.9525,0.4445 -0.61648,-0.61648 V 246.439 l 0.61648,-0.61648 0.9525,0.4445 c 0.10054,0.0476 0.21696,0.003 0.26458,-0.0952 0.0476,-0.10054 0.003,-0.21696 -0.0952,-0.26458 l -1.03716,-0.48419 c -0.10054,-0.0476 -0.21961,-0.0265 -0.29898,0.0529 l -0.46038,0.46037 c -0.0476,-0.0635 -0.12171,-0.10583 -0.20637,-0.10583 -0.14552,0 -0.26459,0.11906 -0.26459,0.26458 v 0.26459 h -0.84137 c -0.11113,-0.30692 -0.40217,-0.52917 -0.74613,-0.52917 -0.4392,0 -0.79375,0.35454 -0.79375,0.79375 0,0.29104 0.15875,0.54239 0.39159,0.68262 l 0.68791,2.2278 h -0.28575 c -0.29104,0 -0.52916,0.23812 -0.52916,0.52916 v 0.26459 h 3.43958 v -0.26459 c 0,-0.29104 -0.23812,-0.52916 -0.52917,-0.52916 h -0.42862 l -1.31498,-2.44211 c 0.045,-0.0635 0.082,-0.12964 0.10848,-0.20373 h 0.84137 v 0.26459 c 0,0.14552 0.11907,0.26458 0.26459,0.26458 0.0847,0 0.15875,-0.0423 0.20637,-0.10583 l 0.46038,0.46037 c 0.0794,0.0794 0.19844,0.10054 0.29898,0.0529 l 1.03716,-0.48419 c 0.10055,-0.0476 0.14288,-0.16404 0.0952,-0.26458 -0.0476,-0.0979 -0.16404,-0.14288 -0.26458,-0.0952 z m -3.68565,-0.0926 c -0.14552,0 -0.26458,-0.11906 -0.26458,-0.26458 0,-0.14552 0.11906,-0.26458 0.26458,-0.26458 0.14553,0 0.26459,0.11906 0.26459,0.26458 0,0.14552 -0.11906,0.26458 -0.26459,0.26458 z m 1.35203,2.64584 h -0.5133 l -0.65087,-2.11667 h 0.0265 z"
       style="fill:#000000;fill-opacity:1;stroke-width:0.26458332" />
  </g>
</svg>
